<svg width="117" height="40" viewBox="0 0 117 40" fill="none" xmlns="http://www.w3.org/2000/svg">
<path d="M65.8124 16.8511C65.8109 18.4711 66.4581 20.0278 67.6168 21.1913C66.4577 22.3545 65.8104 23.9114 65.8124 25.5315C65.8101 27.1911 66.4862 28.7836 67.6918 29.9579C68.8973 31.1323 70.5334 31.7922 72.2395 31.7922H81.6012C81.757 31.7915 81.8831 31.6688 81.8838 31.5173V28.2477C81.8838 28.0959 81.7573 27.9728 81.6012 27.9728H72.2395C70.8776 27.9479 69.7867 26.8673 69.7856 25.5423C69.7854 24.2168 70.8771 23.1355 72.2395 23.1118H81.6012C81.7575 23.1112 81.8838 22.9877 81.8838 22.8357V19.5553C81.8838 19.4035 81.7573 19.2804 81.6012 19.2804H72.201C70.855 19.2362 69.7869 18.1625 69.7856 16.8523C69.7861 15.527 70.8773 14.4461 72.2395 14.4218H81.6012C81.7573 14.4218 81.8838 14.2988 81.8838 14.147V10.8725C81.8838 10.7207 81.7573 10.5977 81.6012 10.5977H72.2395C70.5347 10.5977 68.8997 11.2565 67.6944 12.4293C66.489 13.6021 65.8121 15.1927 65.8124 16.8511Z" fill="#5DC2A7"/>
<path d="M64.6832 10.5977H61.1297C59.6814 10.5977 58.3231 11.1231 57.0547 12.1739C55.7856 11.1239 54.4272 10.5985 52.9798 10.5977H49.4263C49.3179 10.5973 49.2138 10.6399 49.1371 10.716C49.0604 10.7921 49.0175 10.8953 49.0178 11.0029V13.96C49.0178 14.0672 49.061 14.1699 49.1377 14.2453C49.2144 14.3207 49.3183 14.3626 49.4263 14.3616H52.2576C53.6879 14.3588 54.8703 15.4667 54.9492 16.8834C54.9498 16.8866 54.9498 16.8899 54.9492 16.8931V31.3857C54.9492 31.6102 55.1326 31.7922 55.3589 31.7922H58.7543C58.8628 31.7922 58.9669 31.7493 59.0435 31.6731C59.1202 31.5968 59.1631 31.4934 59.1627 31.3857V16.8931V16.8834C59.2421 15.4688 60.4213 14.362 61.8494 14.3616H64.6795C64.7876 14.3626 64.8917 14.3207 64.9686 14.2454C65.0455 14.17 65.0889 14.0673 65.0892 13.96V11.0029C65.0892 10.78 64.9078 10.599 64.6832 10.5977Z" fill="#5DC2A7"/>
<path d="M99.1593 15.8803V11.0029C99.1596 10.8953 99.1166 10.7921 99.0399 10.716C98.9631 10.6399 98.8589 10.5973 98.7503 10.5977H95.3715C95.2629 10.5973 95.1587 10.6399 95.082 10.716C95.0052 10.7921 94.9622 10.8953 94.9625 11.0029V16.8247C94.9625 17.4704 94.7036 18.0896 94.2427 18.5461C93.7818 19.0026 93.1567 19.2589 92.5051 19.2585H87.2932V11.0029C87.2932 10.8952 87.2499 10.792 87.173 10.7159C87.096 10.6399 86.9917 10.5973 86.883 10.5977H83.4981C83.3895 10.5973 83.2853 10.6399 83.2085 10.716C83.1318 10.7921 83.0888 10.8953 83.0891 11.0029V31.3857C83.0894 31.4929 83.1327 31.5955 83.2094 31.6711C83.2861 31.7466 83.3899 31.7889 83.4981 31.7885H86.883C86.9917 31.7889 87.096 31.7463 87.173 31.6703C87.2499 31.5942 87.2932 31.491 87.2932 31.3833V23.0794H92.5051C93.1576 23.0788 93.7835 23.3354 94.2448 23.7927C94.706 24.25 94.9647 24.8704 94.9637 25.5169V31.3869C94.9634 31.4945 95.0064 31.5978 95.0832 31.6738C95.1599 31.7499 95.2641 31.7925 95.3727 31.7922H98.7516C98.8601 31.7925 98.9643 31.7499 99.0411 31.6738C99.1179 31.5978 99.1608 31.4945 99.1605 31.3869L99.1496 25.8594C99.1519 24.1809 98.5066 22.5651 97.3457 21.3427C98.5049 20.1209 99.1493 18.5064 99.1471 16.8295L99.1593 15.8803Z" fill="#5DC2A7"/>
<path d="M116.04 15.4883H112.662C112.443 15.489 112.266 15.6737 112.265 15.9017V16.3884C112.263 18.2197 110.836 19.7037 109.076 19.7057H107.727C105.966 19.7037 104.539 18.2197 104.537 16.3884V15.9017C104.537 15.6734 104.359 15.4883 104.14 15.4883H100.763C100.544 15.4883 100.366 15.6734 100.366 15.9017V17.0104C100.369 20.6704 103.221 23.6365 106.74 23.64H108.401H110.063C113.581 23.6365 116.433 20.6706 116.437 17.0104V15.9017C116.437 15.6737 116.259 15.489 116.04 15.4883V15.4883Z" fill="#5DC2A7"/>
<path d="M102.376 14.6735C101.266 14.672 100.367 13.7602 100.366 12.6349C100.367 11.5099 101.267 10.5984 102.376 10.5977C103.484 10.5984 104.383 11.5101 104.384 12.6349C104.383 13.76 103.485 14.672 102.376 14.6735Z" fill="#FCF055"/>
<path fill-rule="evenodd" clip-rule="evenodd" d="M100.366 12.635C100.366 11.5098 101.265 10.5977 102.374 10.5977C103.484 10.5977 104.383 11.5096 104.384 12.635C104.384 13.7608 103.484 14.6735 102.374 14.6735C101.841 14.6735 101.33 14.4587 100.954 14.0764C100.577 13.694 100.366 13.1755 100.366 12.635ZM103.841 12.635C103.841 11.8134 103.184 11.1475 102.374 11.1468C101.565 11.1481 100.909 11.8136 100.907 12.635C100.908 13.4568 101.564 14.1231 102.374 14.1244C103.185 14.1237 103.841 13.4571 103.841 12.635Z" fill="#5DC2A7"/>
<path d="M114.428 14.6735C113.319 14.672 112.42 13.76 112.419 12.6349C112.42 11.5101 113.319 10.5984 114.428 10.5977C115.537 10.5984 116.436 11.5099 116.437 12.6349C116.436 13.7602 115.537 14.672 114.428 14.6735Z" fill="#FCF055"/>
<path fill-rule="evenodd" clip-rule="evenodd" d="M112.419 12.6356C112.419 11.5101 113.319 10.5977 114.428 10.5977C114.961 10.5977 115.472 10.8124 115.849 11.1946C116.226 11.5767 116.437 12.0951 116.437 12.6356C116.438 13.1762 116.226 13.6947 115.849 14.077C115.472 14.4592 114.961 14.6738 114.428 14.6735C113.896 14.6735 113.385 14.4588 113.008 14.0766C112.631 13.6944 112.419 13.1761 112.419 12.6356ZM115.896 12.6356C115.895 11.8138 115.238 11.1479 114.428 11.1472C113.619 11.1485 112.962 11.8141 112.961 12.6356C112.962 13.4575 113.618 14.1239 114.428 14.1252C115.239 14.1239 115.895 13.4575 115.896 12.6356Z" fill="#5DC2A7"/>
<path d="M110.812 24.0778V32.1591C110.813 32.2777 110.769 32.3915 110.691 32.4754C110.614 32.5594 110.508 32.6066 110.398 32.6066H106.394C106.172 32.6051 105.992 32.4116 105.991 32.1724V24.0738C105.992 23.8343 106.172 23.6404 106.394 23.6397H110.41C110.518 23.6393 110.621 23.6855 110.697 23.7679C110.772 23.8503 110.814 23.962 110.812 24.0778Z" fill="#5DC2A7"/>
<path d="M36.2967 29.3466L48.2142 25.2178C46.325 22.4642 42.6914 21.3122 39.4446 22.4377C36.4138 23.4883 34.4403 26.2788 34.5585 29.3466C34.4407 32.4143 36.4141 35.2045 39.4446 36.2554C42.6917 37.3802 46.3251 36.2279 48.2142 33.4741L36.2967 29.3466Z" fill="#EB9138"/>
<path d="M14.4875 11.4873H36.9349V39.9409H14.4875V11.4873Z" fill="#FCF055"/>
<path d="M15.5236 11.3718C15.8539 5.47575 20.4968 0.870556 26.1161 0.865234C31.7342 0.872542 36.3753 5.47702 36.7062 11.3718H15.5236Z" fill="#5DC2A7"/>
<ellipse cx="30.1186" cy="18.899" rx="3.25232" ry="3.20584" transform="rotate(-90 30.1186 18.899)" fill="black"/>
<path fill-rule="evenodd" clip-rule="evenodd" d="M49.0178 25.1976L48.5769 24.5134C46.5694 21.3765 42.6905 20.0673 39.2323 21.3596C38.6598 21.5741 38.1135 21.8548 37.6043 22.1963V11.8104C37.605 11.3736 37.5814 10.9371 37.5335 10.503C36.8682 4.51992 31.882 -0.00136704 25.9506 5.28845e-06C20.0156 -0.00564526 15.0244 4.51742 14.3593 10.5042H0.635549C0.467102 10.5039 0.305444 10.5716 0.186221 10.6924C0.0669975 10.8132 0 10.9771 0 11.1481C0.000318334 11.3189 0.0674567 11.4826 0.186645 11.6031C0.305834 11.7236 0.46731 11.7912 0.635549 11.7908H14.2836V39.9435H37.6043V36.1555C38.1122 36.4953 38.6568 36.7748 39.2274 36.9885C40.1031 37.3115 41.0277 37.4766 41.9595 37.4763C44.628 37.4751 47.1146 36.1033 48.5673 33.831L49.0046 33.1517L38.2135 29.1734L49.0178 25.1976ZM39.672 22.5755C40.4068 22.303 41.1831 22.1634 41.9655 22.1633C43.9203 22.1621 45.7754 23.0395 47.0318 24.5598L37.6043 28.0319V23.7915C38.2144 23.2631 38.9137 22.8511 39.6684 22.5755H39.672ZM36.2635 10.5042C35.5993 5.236 31.1827 1.28907 25.9506 1.28788C20.718 1.28846 16.3008 5.23554 15.6364 10.5042H36.2635ZM36.338 38.6605H15.5535V11.8116H36.338V38.6605ZM37.6091 34.5627C38.2171 35.0919 38.9143 35.5051 39.6672 35.7823V35.7774C42.2876 36.7578 45.2322 35.964 47.0282 33.7932L37.6091 30.3211V34.5627Z" fill="black"/>
<path d="M56.3495 39.3514C56.2672 39.3514 56.1995 39.3264 56.1466 39.2764C56.0937 39.2235 56.0672 39.1588 56.0672 39.0823V36.5239H56.6407V39.0823C56.6407 39.1588 56.6127 39.2235 56.5568 39.2764C56.5039 39.3264 56.4348 39.3514 56.3495 39.3514ZM55.3747 36.7709C55.2982 36.7709 55.2335 36.7474 55.1806 36.7003C55.1306 36.6533 55.1056 36.5915 55.1056 36.5151C55.1056 36.4386 55.1306 36.3783 55.1806 36.3342C55.2335 36.2871 55.2982 36.2636 55.3747 36.2636H57.3332C57.4097 36.2636 57.4729 36.2871 57.5229 36.3342C57.5758 36.3812 57.6023 36.443 57.6023 36.5195C57.6023 36.5959 57.5758 36.6577 57.5229 36.7047C57.4729 36.7488 57.4097 36.7709 57.3332 36.7709H55.3747Z" fill="black"/>
<path d="M58.3829 39.3514C58.3006 39.3514 58.2271 39.3264 58.1624 39.2764C58.0977 39.2235 58.0653 39.1588 58.0653 39.0823V36.5327C58.0653 36.4562 58.0903 36.393 58.1403 36.343C58.1933 36.2901 58.258 36.2636 58.3344 36.2636H59.6048C59.7577 36.2636 59.9004 36.3048 60.0327 36.3871C60.168 36.4665 60.2768 36.5783 60.3591 36.7224C60.4415 36.8635 60.4826 37.0267 60.4826 37.212C60.4826 37.3238 60.4591 37.4326 60.412 37.5384C60.3679 37.6443 60.3062 37.7399 60.2268 37.8252C60.1503 37.9104 60.0636 37.9766 59.9665 38.0237L59.9709 37.9222C60.0533 37.9663 60.1209 38.0192 60.1738 38.081C60.2297 38.1398 60.2724 38.2045 60.3018 38.2751C60.3341 38.3427 60.3532 38.4162 60.3591 38.4956C60.3709 38.5692 60.3782 38.6339 60.3812 38.6897C60.3871 38.7456 60.3959 38.7927 60.4076 38.8309C60.4223 38.8691 60.4488 38.8985 60.487 38.9191C60.5517 38.9573 60.5914 39.0132 60.6061 39.0867C60.6238 39.1573 60.6076 39.2205 60.5576 39.2764C60.5253 39.3146 60.4841 39.3396 60.4341 39.3514C60.3841 39.3602 60.3341 39.3602 60.2841 39.3514C60.2341 39.3396 60.193 39.3249 60.1606 39.3073C60.1106 39.2779 60.0606 39.2352 60.0106 39.1794C59.9606 39.1205 59.9195 39.0426 59.8871 38.9456C59.8577 38.8485 59.843 38.7235 59.843 38.5706C59.843 38.5206 59.8342 38.4751 59.8165 38.4339C59.7989 38.3898 59.7739 38.353 59.7416 38.3236C59.7092 38.2913 59.668 38.2677 59.6181 38.253C59.5681 38.2354 59.5092 38.2266 59.4416 38.2266H58.5506L58.6167 38.1251V39.0823C58.6167 39.1588 58.5961 39.2235 58.555 39.2764C58.5138 39.3264 58.4565 39.3514 58.3829 39.3514ZM58.555 37.7722H59.5828C59.6357 37.7722 59.6872 37.7487 59.7372 37.7016C59.7871 37.6516 59.8283 37.5855 59.8607 37.5031C59.893 37.4179 59.9092 37.3252 59.9092 37.2252C59.9092 37.0958 59.8739 36.9885 59.8033 36.9032C59.7357 36.815 59.6622 36.7709 59.5828 36.7709H58.5638L58.6167 36.6297V37.8781L58.555 37.7722Z" fill="black"/>
<path d="M63.286 36.2592C63.3624 36.2592 63.4242 36.2857 63.4713 36.3386C63.5183 36.3886 63.5418 36.4518 63.5418 36.5283V38.1251C63.5418 38.3692 63.4889 38.5853 63.383 38.7735C63.2801 38.9617 63.1375 39.1088 62.9552 39.2146C62.7728 39.3205 62.5611 39.3734 62.32 39.3734C62.0788 39.3734 61.8656 39.3205 61.6803 39.2146C61.498 39.1088 61.3539 38.9617 61.2481 38.7735C61.1451 38.5853 61.0937 38.3692 61.0937 38.1251V36.5283C61.0937 36.4518 61.1201 36.3886 61.1731 36.3386C61.226 36.2857 61.2936 36.2592 61.376 36.2592C61.4436 36.2592 61.5039 36.2857 61.5568 36.3386C61.6127 36.3886 61.6406 36.4518 61.6406 36.5283V38.1251C61.6406 38.2721 61.6715 38.4001 61.7333 38.5089C61.798 38.6147 61.8818 38.6971 61.9847 38.7559C62.0906 38.8147 62.2023 38.8441 62.32 38.8441C62.4464 38.8441 62.564 38.8147 62.6728 38.7559C62.7817 38.6971 62.8699 38.6147 62.9375 38.5089C63.0051 38.4001 63.039 38.2721 63.039 38.1251V36.5283C63.039 36.4518 63.061 36.3886 63.1051 36.3386C63.1492 36.2857 63.2095 36.2592 63.286 36.2592ZM63.2331 36.7047V36.2636C63.3477 36.2636 63.4389 36.2416 63.5065 36.1975C63.5742 36.1533 63.608 36.0842 63.608 35.9901C63.608 35.9372 63.6271 35.8857 63.6653 35.8357C63.7036 35.7828 63.7594 35.7563 63.833 35.7563C63.9153 35.7563 63.9712 35.7843 64.0006 35.8402C64.0329 35.8931 64.0491 35.9431 64.0491 35.9901C64.0491 36.1166 64.0212 36.2342 63.9653 36.343C63.9094 36.4518 63.8212 36.54 63.7006 36.6077C63.583 36.6724 63.4271 36.7047 63.2331 36.7047Z" fill="black"/>
<path d="M67.0446 37.8075C67.0446 38.0281 67.0078 38.2339 66.9343 38.4251C66.8608 38.6162 66.7564 38.7853 66.6211 38.9323C66.4888 39.0764 66.33 39.1897 66.1447 39.272C65.9624 39.3543 65.7624 39.3955 65.5448 39.3955C65.3272 39.3955 65.1272 39.3543 64.9449 39.272C64.7626 39.1897 64.6038 39.0764 64.4685 38.9323C64.3362 38.7853 64.2333 38.6162 64.1597 38.4251C64.0862 38.2339 64.0495 38.0281 64.0495 37.8075C64.0495 37.587 64.0862 37.3811 64.1597 37.19C64.2333 36.9988 64.3362 36.8312 64.4685 36.6871C64.6038 36.54 64.7626 36.4254 64.9449 36.343C65.1272 36.2607 65.3272 36.2195 65.5448 36.2195C65.7624 36.2195 65.9624 36.2607 66.1447 36.343C66.33 36.4254 66.4888 36.54 66.6211 36.6871C66.7564 36.8312 66.8608 36.9988 66.9343 37.19C67.0078 37.3811 67.0446 37.587 67.0446 37.8075ZM66.4712 37.8075C66.4712 37.6105 66.4315 37.4326 66.3521 37.2738C66.2727 37.112 66.1638 36.9841 66.0256 36.89C65.8874 36.7959 65.7271 36.7488 65.5448 36.7488C65.3625 36.7488 65.2022 36.7959 65.064 36.89C64.9258 36.9841 64.817 37.1106 64.7376 37.2694C64.6611 37.4282 64.6229 37.6075 64.6229 37.8075C64.6229 38.0045 64.6611 38.1839 64.7376 38.3457C64.817 38.5045 64.9258 38.6309 65.064 38.725C65.2022 38.8191 65.3625 38.8662 65.5448 38.8662C65.7271 38.8662 65.8874 38.8191 66.0256 38.725C66.1638 38.6309 66.2727 38.5045 66.3521 38.3457C66.4315 38.1839 66.4712 38.0045 66.4712 37.8075ZM65.8712 36.718V36.2769C65.9859 36.2769 66.0771 36.2548 66.1447 36.2107C66.2124 36.1666 66.2462 36.0975 66.2462 36.0034C66.2462 35.9504 66.2653 35.899 66.3035 35.849C66.3418 35.796 66.3976 35.7696 66.4712 35.7696C66.5535 35.7696 66.6094 35.7975 66.6388 35.8534C66.6711 35.9063 66.6873 35.9563 66.6873 36.0034C66.6873 36.1298 66.6594 36.2474 66.6035 36.3563C66.5476 36.4651 66.4594 36.5533 66.3388 36.6209C66.2212 36.6856 66.0653 36.718 65.8712 36.718ZM65.5404 36.0784C65.5257 36.0784 65.5095 36.0769 65.4919 36.0739C65.4742 36.0681 65.4566 36.0607 65.439 36.0519L64.9978 35.8181C64.889 35.7593 64.8346 35.6814 64.8346 35.5843C64.8346 35.5167 64.8611 35.4637 64.914 35.4255C64.967 35.3873 65.0184 35.3682 65.0684 35.3682C65.1096 35.3682 65.1478 35.3785 65.1831 35.399C65.2213 35.4167 65.2552 35.4387 65.2846 35.4652L65.6639 35.8005C65.6874 35.821 65.7036 35.8416 65.7124 35.8622C65.7213 35.8799 65.7257 35.899 65.7257 35.9196C65.7257 35.9666 65.708 36.0048 65.6727 36.0342C65.6404 36.0636 65.5963 36.0784 65.5404 36.0784Z" fill="black"/>
<path d="M69.8932 36.2636C69.9638 36.2636 70.0212 36.2871 70.0653 36.3342C70.1094 36.3812 70.1314 36.4401 70.1314 36.5106V39.0823C70.1314 39.1588 70.105 39.2235 70.052 39.2764C70.0021 39.3264 69.9388 39.3514 69.8624 39.3514C69.8241 39.3514 69.7844 39.3455 69.7433 39.3337C69.705 39.319 69.6756 39.2999 69.655 39.2764L67.9215 37.0753L68.0362 37.0047V39.1044C68.0362 39.1749 68.0126 39.2338 67.9656 39.2808C67.9215 39.3279 67.8627 39.3514 67.7891 39.3514C67.7186 39.3514 67.6612 39.3279 67.6171 39.2808C67.573 39.2338 67.5509 39.1749 67.5509 39.1044V36.5327C67.5509 36.4562 67.5759 36.393 67.6259 36.343C67.6789 36.2901 67.7436 36.2636 67.82 36.2636C67.8612 36.2636 67.9038 36.2724 67.9479 36.2901C67.9921 36.3048 68.0244 36.3283 68.045 36.3607L69.7256 38.5045L69.6506 38.5574V36.5106C69.6506 36.4401 69.6727 36.3812 69.7168 36.3342C69.7609 36.2871 69.8197 36.2636 69.8932 36.2636Z" fill="black"/>
<path d="M72.2503 39.3955C72.0268 39.3955 71.818 39.3543 71.6239 39.272C71.4299 39.1897 71.2593 39.0764 71.1123 38.9323C70.9652 38.7853 70.8491 38.6162 70.7638 38.4251C70.6814 38.2339 70.6403 38.0281 70.6403 37.8075C70.6403 37.587 70.6814 37.3811 70.7638 37.19C70.8491 36.9988 70.9652 36.8312 71.1123 36.6871C71.2593 36.54 71.4299 36.4254 71.6239 36.343C71.818 36.2607 72.0268 36.2195 72.2503 36.2195C72.3885 36.2195 72.5223 36.2342 72.6517 36.2636C72.7811 36.293 72.9002 36.3371 73.009 36.396C73.0531 36.4195 73.0855 36.4518 73.1061 36.493C73.1296 36.5312 73.1414 36.5709 73.1414 36.6121C73.1414 36.6827 73.1178 36.7459 73.0708 36.8018C73.0237 36.8576 72.9635 36.8856 72.8899 36.8856C72.8664 36.8856 72.8414 36.8826 72.8149 36.8768C72.7914 36.8709 72.7679 36.8621 72.7444 36.8503C72.6709 36.8179 72.5929 36.793 72.5106 36.7753C72.4282 36.7577 72.3415 36.7488 72.2503 36.7488C72.0592 36.7488 71.8842 36.7974 71.7254 36.8944C71.5695 36.9885 71.4446 37.1164 71.3505 37.2782C71.2593 37.437 71.2137 37.6134 71.2137 37.8075C71.2137 37.9987 71.2593 38.1751 71.3505 38.3368C71.4446 38.4986 71.5695 38.628 71.7254 38.725C71.8842 38.8191 72.0592 38.8662 72.2503 38.8662C72.3385 38.8662 72.4356 38.8574 72.5415 38.8397C72.6473 38.8221 72.7341 38.7985 72.8017 38.7691L72.762 38.9015V38.1472L72.837 38.2133H72.3474C72.2709 38.2133 72.2062 38.1883 72.1533 38.1383C72.1033 38.0883 72.0783 38.0251 72.0783 37.9487C72.0783 37.8722 72.1033 37.809 72.1533 37.759C72.2062 37.709 72.2709 37.684 72.3474 37.684H73.0708C73.1473 37.684 73.2105 37.7105 73.2605 37.7634C73.3105 37.8134 73.3355 37.8766 73.3355 37.9531V38.8882C73.3355 38.947 73.3208 38.9956 73.2913 39.0338C73.2649 39.072 73.234 39.1029 73.1987 39.1264C73.0634 39.2088 72.9149 39.2749 72.7532 39.3249C72.5944 39.372 72.4268 39.3955 72.2503 39.3955Z" fill="black"/>
<path d="M75.3847 36.2636C75.4553 36.2636 75.517 36.2901 75.57 36.343C75.6258 36.393 75.6538 36.4562 75.6538 36.5327V39.0823C75.6538 39.1588 75.6258 39.2235 75.57 39.2764C75.5141 39.3264 75.4494 39.3514 75.3759 39.3514C75.2935 39.3514 75.2274 39.3264 75.1774 39.2764C75.1274 39.2235 75.1024 39.1588 75.1024 39.0823V36.5327C75.1024 36.4562 75.1288 36.393 75.1818 36.343C75.2347 36.2901 75.3024 36.2636 75.3847 36.2636ZM77.3388 36.2636C77.4212 36.2636 77.4873 36.2901 77.5373 36.343C77.5873 36.393 77.6123 36.4562 77.6123 36.5327V39.0823C77.6123 39.1588 77.5858 39.2235 77.5329 39.2764C77.4829 39.3264 77.4153 39.3514 77.33 39.3514C77.2594 39.3514 77.1962 39.3264 77.1403 39.2764C77.0874 39.2235 77.0609 39.1588 77.0609 39.0823V36.5327C77.0609 36.4562 77.0889 36.393 77.1447 36.343C77.2006 36.2901 77.2653 36.2636 77.3388 36.2636ZM75.3715 37.5473H77.3388V38.0545H75.3715V37.5473Z" fill="black"/>
<path d="M81.1136 37.8075C81.1136 38.0281 81.0769 38.2339 81.0033 38.4251C80.9298 38.6162 80.8254 38.7853 80.6902 38.9323C80.5578 39.0764 80.399 39.1897 80.2138 39.272C80.0314 39.3543 79.8315 39.3955 79.6138 39.3955C79.3962 39.3955 79.1963 39.3543 79.0139 39.272C78.8316 39.1897 78.6728 39.0764 78.5375 38.9323C78.4052 38.7853 78.3023 38.6162 78.2288 38.4251C78.1552 38.2339 78.1185 38.0281 78.1185 37.8075C78.1185 37.587 78.1552 37.3811 78.2288 37.19C78.3023 36.9988 78.4052 36.8312 78.5375 36.6871C78.6728 36.54 78.8316 36.4254 79.0139 36.343C79.1963 36.2607 79.3962 36.2195 79.6138 36.2195C79.8315 36.2195 80.0314 36.2607 80.2138 36.343C80.399 36.4254 80.5578 36.54 80.6902 36.6871C80.8254 36.8312 80.9298 36.9988 81.0033 37.19C81.0769 37.3811 81.1136 37.587 81.1136 37.8075ZM80.5402 37.8075C80.5402 37.6105 80.5005 37.4326 80.4211 37.2738C80.3417 37.112 80.2329 36.9841 80.0947 36.89C79.9564 36.7959 79.7962 36.7488 79.6138 36.7488C79.4315 36.7488 79.2712 36.7959 79.133 36.89C78.9948 36.9841 78.886 37.1106 78.8066 37.2694C78.7302 37.4282 78.6919 37.6075 78.6919 37.8075C78.6919 38.0045 78.7302 38.1839 78.8066 38.3457C78.886 38.5045 78.9948 38.6309 79.133 38.725C79.2712 38.8191 79.4315 38.8662 79.6138 38.8662C79.7962 38.8662 79.9564 38.8191 80.0947 38.725C80.2329 38.6309 80.3417 38.5045 80.4211 38.3457C80.5005 38.1839 80.5402 38.0045 80.5402 37.8075ZM79.6094 39.9998C79.5124 39.9998 79.4433 39.9837 79.4021 39.9513C79.3609 39.919 79.3404 39.8616 79.3404 39.7793V39.6955C79.3404 39.6102 79.3624 39.5514 79.4065 39.519C79.4536 39.4896 79.5212 39.4749 79.6094 39.4749C79.7182 39.4749 79.7932 39.4896 79.8344 39.519C79.8756 39.5514 79.8962 39.6102 79.8962 39.6955V39.7793C79.8962 39.8646 79.8741 39.9219 79.83 39.9513C79.7859 39.9837 79.7124 39.9998 79.6094 39.9998Z" fill="black"/>
<path d="M83.7814 36.4136C83.8579 36.4518 83.902 36.5121 83.9137 36.5945C83.9284 36.6768 83.9079 36.7518 83.852 36.8194C83.8138 36.8724 83.7638 36.9018 83.702 36.9076C83.6432 36.9135 83.5829 36.9018 83.5212 36.8724C83.4506 36.84 83.3756 36.815 83.2962 36.7974C83.2197 36.7797 83.1389 36.7709 83.0536 36.7709C82.8948 36.7709 82.7522 36.7959 82.6257 36.8459C82.5022 36.8959 82.3963 36.9679 82.3081 37.062C82.2199 37.1532 82.1522 37.262 82.1052 37.3885C82.0611 37.5149 82.039 37.6546 82.039 37.8075C82.039 37.9869 82.064 38.1428 82.114 38.2751C82.1669 38.4074 82.239 38.5177 82.3302 38.6059C82.4213 38.6941 82.5287 38.7603 82.6522 38.8044C82.7757 38.8456 82.9095 38.8662 83.0536 38.8662C83.133 38.8662 83.2124 38.8588 83.2918 38.8441C83.3712 38.8294 83.4476 38.8029 83.5212 38.7647C83.5829 38.7353 83.6432 38.725 83.702 38.7338C83.7638 38.7427 83.8152 38.7735 83.8564 38.8265C83.9152 38.9 83.9358 38.9764 83.9182 39.0559C83.9035 39.1323 83.8593 39.1882 83.7858 39.2235C83.7094 39.2617 83.63 39.294 83.5476 39.3205C83.4682 39.344 83.3874 39.3617 83.305 39.3734C83.2227 39.3882 83.1389 39.3955 83.0536 39.3955C82.8418 39.3955 82.6404 39.3617 82.4493 39.294C82.261 39.2264 82.092 39.1264 81.942 38.9941C81.7949 38.8618 81.6788 38.6971 81.5935 38.5001C81.5082 38.3001 81.4656 38.0692 81.4656 37.8075C81.4656 37.5811 81.5038 37.3723 81.5803 37.1811C81.6597 36.99 81.7699 36.8253 81.9111 36.6871C82.0552 36.5459 82.2243 36.4371 82.4184 36.3607C82.6125 36.2813 82.8242 36.2416 83.0536 36.2416C83.183 36.2416 83.3094 36.2563 83.4329 36.2857C83.5564 36.3151 83.6726 36.3577 83.7814 36.4136Z" fill="black"/>
<path d="M87.7833 36.4136C87.8597 36.4518 87.9039 36.5121 87.9156 36.5945C87.9303 36.6768 87.9097 36.7518 87.8539 36.8194C87.8156 36.8724 87.7656 36.9018 87.7039 36.9076C87.6451 36.9135 87.5848 36.9018 87.523 36.8724C87.4524 36.84 87.3775 36.815 87.2981 36.7974C87.2216 36.7797 87.1407 36.7709 87.0555 36.7709C86.8967 36.7709 86.754 36.7959 86.6276 36.8459C86.5041 36.8959 86.3982 36.9679 86.31 37.062C86.2218 37.1532 86.1541 37.262 86.1071 37.3885C86.063 37.5149 86.0409 37.6546 86.0409 37.8075C86.0409 37.9869 86.0659 38.1428 86.1159 38.2751C86.1688 38.4074 86.2409 38.5177 86.332 38.6059C86.4232 38.6941 86.5305 38.7603 86.654 38.8044C86.7775 38.8456 86.9114 38.8662 87.0555 38.8662C87.1348 38.8662 87.2142 38.8588 87.2936 38.8441C87.373 38.8294 87.4495 38.8029 87.523 38.7647C87.5848 38.7353 87.6451 38.725 87.7039 38.7338C87.7656 38.7427 87.8171 38.7735 87.8583 38.8265C87.9171 38.9 87.9377 38.9764 87.92 39.0559C87.9053 39.1323 87.8612 39.1882 87.7877 39.2235C87.7112 39.2617 87.6318 39.294 87.5495 39.3205C87.4701 39.344 87.3892 39.3617 87.3069 39.3734C87.2245 39.3882 87.1407 39.3955 87.0555 39.3955C86.8437 39.3955 86.6423 39.3617 86.4511 39.294C86.2629 39.2264 86.0938 39.1264 85.9439 38.9941C85.7968 38.8618 85.6807 38.6971 85.5954 38.5001C85.5101 38.3001 85.4675 38.0692 85.4675 37.8075C85.4675 37.5811 85.5057 37.3723 85.5821 37.1811C85.6615 36.99 85.7718 36.8253 85.913 36.6871C86.0571 36.5459 86.2262 36.4371 86.4202 36.3607C86.6143 36.2813 86.8261 36.2416 87.0555 36.2416C87.1848 36.2416 87.3113 36.2563 87.4348 36.2857C87.5583 36.3151 87.6745 36.3577 87.7833 36.4136Z" fill="black"/>
<path d="M91.2281 37.8075C91.2281 38.0281 91.1914 38.2339 91.1179 38.4251C91.0444 38.6162 90.94 38.7853 90.8047 38.9323C90.6724 39.0764 90.5136 39.1897 90.3283 39.272C90.146 39.3543 89.946 39.3955 89.7284 39.3955C89.5108 39.3955 89.3108 39.3543 89.1285 39.272C88.9461 39.1897 88.7873 39.0764 88.6521 38.9323C88.5197 38.7853 88.4168 38.6162 88.3433 38.4251C88.2698 38.2339 88.233 38.0281 88.233 37.8075C88.233 37.587 88.2698 37.3811 88.3433 37.19C88.4168 36.9988 88.5197 36.8312 88.6521 36.6871C88.7873 36.54 88.9461 36.4254 89.1285 36.343C89.3108 36.2607 89.5108 36.2195 89.7284 36.2195C89.946 36.2195 90.146 36.2607 90.3283 36.343C90.5136 36.4254 90.6724 36.54 90.8047 36.6871C90.94 36.8312 91.0444 36.9988 91.1179 37.19C91.1914 37.3811 91.2281 37.587 91.2281 37.8075ZM90.6547 37.8075C90.6547 37.6105 90.615 37.4326 90.5356 37.2738C90.4562 37.112 90.3474 36.9841 90.2092 36.89C90.071 36.7959 89.9107 36.7488 89.7284 36.7488C89.546 36.7488 89.3858 36.7959 89.2476 36.89C89.1093 36.9841 89.0005 37.1106 88.9211 37.2694C88.8447 37.4282 88.8065 37.6075 88.8065 37.8075C88.8065 38.0045 88.8447 38.1839 88.9211 38.3457C89.0005 38.5045 89.1093 38.6309 89.2476 38.725C89.3858 38.8191 89.546 38.8662 89.7284 38.8662C89.9107 38.8662 90.071 38.8191 90.2092 38.725C90.3474 38.6309 90.4562 38.5045 90.5356 38.3457C90.615 38.1839 90.6547 38.0045 90.6547 37.8075ZM89.8122 35.774L89.4417 35.9901C89.3917 36.0195 89.349 36.0431 89.3137 36.0607C89.2784 36.0784 89.2461 36.0872 89.2167 36.0872C89.1785 36.0872 89.1461 36.0754 89.1196 36.0519C89.0932 36.0284 89.0799 36.0034 89.0799 35.9769C89.0799 35.9534 89.0844 35.9328 89.0932 35.9151C89.102 35.8975 89.1196 35.874 89.1461 35.8446L89.424 35.527C89.4622 35.4858 89.5019 35.4549 89.5431 35.4343C89.5843 35.4108 89.6343 35.399 89.6931 35.399H89.7637C89.8225 35.399 89.8725 35.4108 89.9136 35.4343C89.9548 35.4549 89.9945 35.4858 90.0327 35.527L90.3106 35.8446C90.3371 35.874 90.3548 35.8975 90.3636 35.9151C90.3724 35.9328 90.3768 35.9534 90.3768 35.9769C90.3768 36.0034 90.3636 36.0284 90.3371 36.0519C90.3136 36.0754 90.2812 36.0872 90.2401 36.0872C90.2107 36.0872 90.1783 36.0784 90.143 36.0607C90.1077 36.0431 90.0651 36.0195 90.0151 35.9901L89.6446 35.774H89.8122Z" fill="black"/>
<path d="M94.0768 36.2636C94.1474 36.2636 94.2047 36.2871 94.2488 36.3342C94.2929 36.3812 94.315 36.4401 94.315 36.5106V39.0823C94.315 39.1588 94.2885 39.2235 94.2356 39.2764C94.1856 39.3264 94.1224 39.3514 94.0459 39.3514C94.0077 39.3514 93.968 39.3455 93.9268 39.3337C93.8886 39.319 93.8592 39.2999 93.8386 39.2764L92.105 37.0753L92.2197 37.0047V39.1044C92.2197 39.1749 92.1962 39.2338 92.1491 39.2808C92.105 39.3279 92.0462 39.3514 91.9727 39.3514C91.9021 39.3514 91.8448 39.3279 91.8007 39.2808C91.7566 39.2338 91.7345 39.1749 91.7345 39.1044V36.5327C91.7345 36.4562 91.7595 36.393 91.8095 36.343C91.8624 36.2901 91.9271 36.2636 92.0036 36.2636C92.0447 36.2636 92.0874 36.2724 92.1315 36.2901C92.1756 36.3048 92.208 36.3283 92.2285 36.3607L93.9092 38.5045L93.8342 38.5574V36.5106C93.8342 36.4401 93.8562 36.3812 93.9004 36.3342C93.9445 36.2871 94.0033 36.2636 94.0768 36.2636Z" fill="black"/>
<path d="M96.4339 39.3955C96.2104 39.3955 96.0016 39.3543 95.8075 39.272C95.6134 39.1897 95.4429 39.0764 95.2958 38.9323C95.1488 38.7853 95.0326 38.6162 94.9473 38.4251C94.865 38.2339 94.8238 38.0281 94.8238 37.8075C94.8238 37.587 94.865 37.3811 94.9473 37.19C95.0326 36.9988 95.1488 36.8312 95.2958 36.6871C95.4429 36.54 95.6134 36.4254 95.8075 36.343C96.0016 36.2607 96.2104 36.2195 96.4339 36.2195C96.5721 36.2195 96.7059 36.2342 96.8353 36.2636C96.9647 36.293 97.0838 36.3371 97.1926 36.396C97.2367 36.4195 97.269 36.4518 97.2896 36.493C97.3132 36.5312 97.3249 36.5709 97.3249 36.6121C97.3249 36.6827 97.3014 36.7459 97.2543 36.8018C97.2073 36.8576 97.147 36.8856 97.0735 36.8856C97.05 36.8856 97.025 36.8826 96.9985 36.8768C96.975 36.8709 96.9514 36.8621 96.9279 36.8503C96.8544 36.8179 96.7765 36.793 96.6941 36.7753C96.6118 36.7577 96.525 36.7488 96.4339 36.7488C96.2427 36.7488 96.0678 36.7974 95.909 36.8944C95.7531 36.9885 95.6281 37.1164 95.534 37.2782C95.4428 37.437 95.3973 37.6134 95.3973 37.8075C95.3973 37.9987 95.4428 38.1751 95.534 38.3368C95.6281 38.4986 95.7531 38.628 95.909 38.725C96.0678 38.8191 96.2427 38.8662 96.4339 38.8662C96.5221 38.8662 96.6191 38.8574 96.725 38.8397C96.8309 38.8221 96.9176 38.7985 96.9853 38.7691L96.9456 38.9015V38.1472L97.0206 38.2133H96.5309C96.4545 38.2133 96.3898 38.1883 96.3368 38.1383C96.2868 38.0883 96.2618 38.0251 96.2618 37.9487C96.2618 37.8722 96.2868 37.809 96.3368 37.759C96.3898 37.709 96.4545 37.684 96.5309 37.684H97.2543C97.3308 37.684 97.394 37.7105 97.444 37.7634C97.494 37.8134 97.519 37.8766 97.519 37.9531V38.8882C97.519 38.947 97.5043 38.9956 97.4749 39.0338C97.4484 39.072 97.4176 39.1029 97.3823 39.1264C97.247 39.2088 97.0985 39.2749 96.9367 39.3249C96.7779 39.372 96.6103 39.3955 96.4339 39.3955Z" fill="black"/>
<path d="M101.628 36.2636C101.699 36.2636 101.756 36.2871 101.8 36.3342C101.844 36.3812 101.866 36.4401 101.866 36.5106V39.0823C101.866 39.1588 101.84 39.2235 101.787 39.2764C101.737 39.3264 101.674 39.3514 101.597 39.3514C101.559 39.3514 101.519 39.3455 101.478 39.3337C101.44 39.319 101.411 39.2999 101.39 39.2764L99.6565 37.0753L99.7712 37.0047V39.1044C99.7712 39.1749 99.7476 39.2338 99.7006 39.2808C99.6565 39.3279 99.5977 39.3514 99.5241 39.3514C99.4536 39.3514 99.3962 39.3279 99.3521 39.2808C99.308 39.2338 99.2859 39.1749 99.2859 39.1044V36.5327C99.2859 36.4562 99.3109 36.393 99.3609 36.343C99.4139 36.2901 99.4786 36.2636 99.555 36.2636C99.5962 36.2636 99.6388 36.2724 99.6829 36.2901C99.727 36.3048 99.7594 36.3283 99.78 36.3607L101.461 38.5045L101.386 38.5574V36.5106C101.386 36.4401 101.408 36.3812 101.452 36.3342C101.496 36.2871 101.555 36.2636 101.628 36.2636Z" fill="black"/>
<path d="M103.985 39.3955C103.762 39.3955 103.553 39.3543 103.359 39.272C103.165 39.1897 102.994 39.0764 102.847 38.9323C102.7 38.7853 102.584 38.6162 102.499 38.4251C102.416 38.2339 102.375 38.0281 102.375 37.8075C102.375 37.587 102.416 37.3811 102.499 37.19C102.584 36.9988 102.7 36.8312 102.847 36.6871C102.994 36.54 103.165 36.4254 103.359 36.343C103.553 36.2607 103.762 36.2195 103.985 36.2195C104.124 36.2195 104.257 36.2342 104.387 36.2636C104.516 36.293 104.635 36.3371 104.744 36.396C104.788 36.4195 104.82 36.4518 104.841 36.493C104.865 36.5312 104.876 36.5709 104.876 36.6121C104.876 36.6827 104.853 36.7459 104.806 36.8018C104.759 36.8576 104.698 36.8856 104.625 36.8856C104.601 36.8856 104.576 36.8826 104.55 36.8768C104.526 36.8709 104.503 36.8621 104.479 36.8503C104.406 36.8179 104.328 36.793 104.246 36.7753C104.163 36.7577 104.076 36.7488 103.985 36.7488C103.794 36.7488 103.619 36.7974 103.46 36.8944C103.305 36.9885 103.18 37.1164 103.085 37.2782C102.994 37.437 102.949 37.6134 102.949 37.8075C102.949 37.9987 102.994 38.1751 103.085 38.3368C103.18 38.4986 103.305 38.628 103.46 38.725C103.619 38.8191 103.794 38.8662 103.985 38.8662C104.074 38.8662 104.171 38.8574 104.276 38.8397C104.382 38.8221 104.469 38.7985 104.537 38.7691L104.497 38.9015V38.1472L104.572 38.2133H104.082C104.006 38.2133 103.941 38.1883 103.888 38.1383C103.838 38.0883 103.813 38.0251 103.813 37.9487C103.813 37.8722 103.838 37.809 103.888 37.759C103.941 37.709 104.006 37.684 104.082 37.684H104.806C104.882 37.684 104.945 37.7105 104.995 37.7634C105.045 37.8134 105.07 37.8766 105.07 37.9531V38.8882C105.07 38.947 105.056 38.9956 105.026 39.0338C105 39.072 104.969 39.1029 104.934 39.1264C104.798 39.2088 104.65 39.2749 104.488 39.3249C104.329 39.372 104.162 39.3955 103.985 39.3955Z" fill="black"/>
<path d="M105.883 36.2636C105.954 36.2636 106.016 36.2901 106.069 36.343C106.125 36.393 106.152 36.4562 106.152 36.5327V39.0823C106.152 39.1588 106.125 39.2235 106.069 39.2764C106.013 39.3264 105.948 39.3514 105.875 39.3514C105.792 39.3514 105.726 39.3264 105.676 39.2764C105.626 39.2235 105.601 39.1588 105.601 39.0823V36.5327C105.601 36.4562 105.628 36.393 105.68 36.343C105.733 36.2901 105.801 36.2636 105.883 36.2636ZM107.837 36.2636C107.92 36.2636 107.986 36.2901 108.036 36.343C108.086 36.393 108.111 36.4562 108.111 36.5327V39.0823C108.111 39.1588 108.085 39.2235 108.032 39.2764C107.982 39.3264 107.914 39.3514 107.829 39.3514C107.758 39.3514 107.695 39.3264 107.639 39.2764C107.586 39.2235 107.56 39.1588 107.56 39.0823V36.5327C107.56 36.4562 107.588 36.393 107.643 36.343C107.699 36.2901 107.764 36.2636 107.837 36.2636ZM105.87 37.5473H107.837V38.0545H105.87V37.5473Z" fill="black"/>
<path d="M109.041 36.2636H110.518C110.595 36.2636 110.658 36.2886 110.708 36.3386C110.761 36.3857 110.787 36.4474 110.787 36.5239C110.787 36.5974 110.761 36.6577 110.708 36.7047C110.658 36.7488 110.595 36.7709 110.518 36.7709H109.283L109.323 36.6959V37.5561L109.288 37.5208H110.32C110.396 37.5208 110.46 37.5458 110.51 37.5958C110.562 37.6428 110.589 37.7046 110.589 37.781C110.589 37.8546 110.562 37.9148 110.51 37.9619C110.46 38.006 110.396 38.0281 110.32 38.0281H109.301L109.323 37.9928V38.8838L109.288 38.8441H110.518C110.595 38.8441 110.658 38.8706 110.708 38.9235C110.761 38.9735 110.787 39.0323 110.787 39.1C110.787 39.1735 110.761 39.2338 110.708 39.2808C110.658 39.3279 110.595 39.3514 110.518 39.3514H109.041C108.964 39.3514 108.899 39.3264 108.847 39.2764C108.797 39.2235 108.772 39.1588 108.772 39.0823V36.5327C108.772 36.4562 108.797 36.393 108.847 36.343C108.899 36.2901 108.964 36.2636 109.041 36.2636ZM109.693 39.9998C109.596 39.9998 109.527 39.9837 109.486 39.9513C109.445 39.919 109.424 39.8616 109.424 39.7793V39.6955C109.424 39.6102 109.446 39.5514 109.491 39.519C109.538 39.4896 109.605 39.4749 109.693 39.4749C109.802 39.4749 109.877 39.4896 109.918 39.519C109.96 39.5514 109.98 39.6102 109.98 39.6955V39.7793C109.98 39.8646 109.958 39.9219 109.914 39.9513C109.87 39.9837 109.796 39.9998 109.693 39.9998ZM109.87 35.774L109.499 35.9901C109.449 36.0195 109.407 36.0431 109.371 36.0607C109.336 36.0784 109.304 36.0872 109.274 36.0872C109.236 36.0872 109.204 36.0754 109.177 36.0519C109.151 36.0284 109.138 36.0034 109.138 35.9769C109.138 35.9534 109.142 35.9328 109.151 35.9151C109.16 35.8975 109.177 35.874 109.204 35.8446L109.482 35.527C109.52 35.4858 109.56 35.4549 109.601 35.4343C109.642 35.4108 109.692 35.399 109.751 35.399H109.821C109.88 35.399 109.93 35.4108 109.971 35.4343C110.013 35.4549 110.052 35.4858 110.09 35.527L110.368 35.8446C110.395 35.874 110.412 35.8975 110.421 35.9151C110.43 35.9328 110.435 35.9534 110.435 35.9769C110.435 36.0034 110.421 36.0284 110.395 36.0519C110.371 36.0754 110.339 36.0872 110.298 36.0872C110.268 36.0872 110.236 36.0784 110.201 36.0607C110.165 36.0431 110.123 36.0195 110.073 35.9901L109.702 35.774H109.87Z" fill="black"/>
</svg>
